<?xml version="1.0" encoding="UTF-8" standalone="no"?>
<svg
   width="14.062406"
   height="15.999969"
   viewBox="0 0 14.062406 15.999969"
   fill="none"
   version="1.1"
   id="svg29"
   sodipodi:docname="5d89d0b162aaf95dd24096f52b48e98f.svg"
   xmlns:inkscape="http://www.inkscape.org/namespaces/inkscape"
   xmlns:sodipodi="http://sodipodi.sourceforge.net/DTD/sodipodi-0.dtd"
   xmlns="http://www.w3.org/2000/svg"
   xmlns:svg="http://www.w3.org/2000/svg">
  <sodipodi:namedview
     id="namedview31"
     pagecolor="#ffffff"
     bordercolor="#666666"
     borderopacity="1.0"
     inkscape:pageshadow="2"
     inkscape:pageopacity="0.0"
     inkscape:pagecheckerboard="0" />
  <g
     clip-path="url(#clip0_2746_11578)"
     id="g22"
     transform="translate(-0.96875021,-3.0486983e-5)">
    <path
       d="M 8.24041,0.0666437 C 8.0921,-0.0221687 7.90807,-0.0221687 7.75975,0.0666124 7.71122,0.0955186 6.86522,0.641799 6.0791,1.45458 6.62716,1.7182 7.33472,2.12705 8.0006,2.67729 8.66613,2.12723 9.37344,1.71839 9.92134,1.45483 9.13506,0.64183 8.28894,0.0955186 8.24041,0.0666437 Z"
       fill="#81b751"
       id="path2" />
    <path
       d="M 11.6547,2.08816 C 11.5288,1.94491 11.3278,1.89135 11.1502,1.95313 11.0873,1.97463 9.96432,2.3661 8.89307,3.15885 9.2131,3.38503 10.126,4.0765 10.9217,5.10281 11.8183,4.67456 12.646,4.46731 13.0589,4.38366 12.5284,3.10028 11.7012,2.14147 11.6547,2.08816 Z"
       fill="#81b751"
       id="path4" />
    <path
       d="M 4.85067,1.95311 C 4.67352,1.8927 4.47211,1.94533 4.34624,2.08861 4.2997,2.14161 3.47249,3.10073 2.94189,4.38414 3.35921,4.46882 4.18514,4.67664 5.07808,5.10282 5.87448,4.07573 6.78814,3.38417 7.10748,3.15845 6.03639,2.36601 4.91358,1.97461 4.85067,1.95311 Z"
       fill="#81b751"
       id="path6" />
    <path
       d="M 8.26157,3.86107 C 8.10319,3.75489 7.89719,3.75489 7.73879,3.86107 7.6851,3.89707 6.73101,4.54732 5.90967,5.56282 6.30639,5.81494 6.69245,6.11694 7.04354,6.47572 7.36398,6.26429 7.58416,6.12513 8.00019,6.12513 8.41485,6.1251 8.63829,6.26541 8.95722,6.47582 9.30832,6.11698 9.69435,5.81498 10.0908,5.56288 9.26947,4.54742 8.31526,3.89707 8.26157,3.86107 Z"
       fill="#81b751"
       id="path8" />
    <path
       d="M 13.9574,5.55936 C 13.8777,5.3538 13.6653,5.23249 13.4479,5.26499 13.3387,5.2822 11.1656,5.64167 9.71924,7.03982 10.1605,7.39579 10.6684,7.86998 11.1188,8.44473 12.1688,8.05935 13.2611,7.78807 14.3753,7.6476 l 0.037,-0.00462 C 14.3074,6.49851 13.9776,5.61127 13.9574,5.55936 Z"
       fill="#81b751"
       id="path10" />
    <path
       d="M 2.55242,5.26496 C 2.33589,5.23249 2.12258,5.3538 2.04292,5.55934 2.02273,5.6113 1.69267,6.49911 1.58789,7.64411 L 1.62864,7.64805 C 2.74111,7.7883 3.83239,8.05939 4.88176,8.44461 5.33204,7.87001 5.83985,7.39586 6.28135,7.03977 4.83498,5.64171 2.66164,5.28218 2.55242,5.26496 Z"
       fill="#81b751"
       id="path12" />
    <path
       d="M 8.24056,7.12893 C 8.09225,7.04011 7.90821,7.04011 7.7599,7.12893 7.69915,7.16496 6.62365,7.81739 5.76953,8.82574 6.54165,9.16739 7.295,9.55226 8.00025,10.0215 8.70537,9.55226 9.4588,9.16742 10.2311,8.82577 9.37693,7.8173 8.30134,7.16493 8.24056,7.12893 Z"
       fill="#81b751"
       id="path14" />
    <path
       d="M 10.304,14.6771 C 10.0417,13.3826 8.58285,12.2399 8.0001,11.8407 7.40867,12.2454 5.91685,13.4141 5.68567,14.7311 5.63004,15.049 5.66039,15.3545 5.76332,15.6538 6.46695,15.875 7.21748,16 8.0001,16 c 0.78078,0 1.52969,-0.1243 2.232,-0.3446 0.1097,-0.317 0.1406,-0.6404 0.0719,-0.9783 z"
       fill="#81b751"
       id="path16" />
    <path
       d="M 1.50764,8.57782 C 1.38082,8.56132 1.24992,8.59932 1.15057,8.68172 1.05079,8.76366 0.98945,8.8836 0.9812,9.01269 0.812981,11.6761 2.36442,14.0761 4.72838,15.2416 4.71413,15.0197 4.72254,14.795 4.76272,14.5667 5.09329,12.6923 7.20206,11.2316 7.66703,10.9368 5.83428,9.67269 3.72288,8.8571 1.50764,8.57782 Z"
       fill="#81b751"
       id="path18" />
    <path
       d="M 15.0187,9.01269 C 15.0105,8.8836 14.9492,8.76366 14.8493,8.68172 14.75,8.59932 14.6214,8.56132 14.4923,8.57782 12.2775,8.8571 10.1657,9.67263 8.33301,10.9367 c 0.45878,0.2907 2.51539,1.7159 2.88909,3.5513 0.0523,0.2567 0.0578,0.5082 0.0413,0.7572 2.3677,-1.1637 3.9238,-3.5651 3.7553,-6.23251 z"
       fill="#81b751"
       id="path20" />
  </g>
  <defs
     id="defs27">
    <clipPath
       id="clip0_2746_11578">
      <rect
         width="16"
         height="16"
         fill="#ffffff"
         id="rect24"
         x="0"
         y="0" />
    </clipPath>
  </defs>
</svg>
